<?xml version="1.0" encoding="UTF-8"?>
<svg width="160px" height="195px" viewBox="0 0 160 195" version="1.1" xmlns="http://www.w3.org/2000/svg" xmlns:xlink="http://www.w3.org/1999/xlink">
    <!-- Generator: Sketch 61.2 (89653) - https://sketch.com -->
    <title>Group 7</title>
    <desc>Created with Sketch.</desc>
    <defs>
        <linearGradient x1="100%" y1="33.7253738%" x2="31.7787057%" y2="71.0297687%" id="linearGradient-1">
            <stop stop-color="#950101" offset="0%"></stop>
            <stop stop-color="#C9C9C9" stop-opacity="0.0980659965" offset="100%"></stop>
        </linearGradient>
    </defs>
    <g id="Final" stroke="none" stroke-width="1" fill="none" fill-rule="evenodd">
        <g id="Final_Desktop" transform="translate(-283.000000, -5929.000000)">
            <g id="Group-7" transform="translate(272.000000, 5929.000000)">
                <g id="Rhombus" transform="translate(30.306843, 0.000000)">
                    <polygon id="Path-2" fill="#F99200" points="35.8765462 97.6077914 65.5942077 0.100818937 132.307283 97.6077914"></polygon>
                    <polygon id="Path-2" fill="#FFBD7C" transform="translate(32.797104, 48.803896) scale(-1, 1) translate(-32.797104, -48.803896) " points="28.2056615 97.5069725 5.08521225e-13 0.100818937 65.5942077 97.5069725"></polygon>
                    <polygon id="Path-2" fill="#FC7876" transform="translate(84.091914, 145.622305) scale(1, -1) translate(-84.091914, -145.622305) " points="35.8765462 194.375791 65.5942077 96.8688189 132.307283 194.375791"></polygon>
                    <polygon id="Path-2" fill="#FE4A48" transform="translate(32.797104, 145.571896) scale(-1, -1) translate(-32.797104, -145.571896) " points="28.2056615 194.375791 -8.53364777e-13 96.768 65.5942077 194.375791"></polygon>
                </g>
                <ellipse id="Oval" stroke="#FFFFFF" stroke-width="3.528" transform="translate(89.544000, 114.505061) rotate(25.000000) translate(-89.544000, -114.505061) " cx="89.544" cy="114.505061" rx="82.656" ry="28.98"></ellipse>
                <g id="Rhombus-Front" transform="translate(30.306843, 0.000000)">
                    <polygon id="Path-2" fill="#FFAFAE" points="35.8765462 97.6077914 65.5942077 0.100818937 132.307283 97.6077914"></polygon>
                    <polygon id="Path-2" fill="#FFFFFF" transform="translate(32.797104, 48.803896) scale(-1, 1) translate(-32.797104, -48.803896) " points="28.2056615 97.5069725 3.94979448e-13 0.100818937 65.5942077 97.5069725"></polygon>
                    <polygon id="Path-2" fill="#FC7876" transform="translate(84.091914, 114.457756) scale(1, -1) translate(-84.091914, -114.457756) " points="35.8765462 132.046693 107.604495 96.8688189 132.307283 132.046693"></polygon>
                    <polygon id="Path-2" fill="#FE4A48" transform="translate(24.659630, 117.936000) scale(-1, -1) translate(-24.659630, -117.936000) " points="11.9307134 139.104 1.07434062e-14 96.768 49.3192596 139.104"></polygon>
                </g>
                <polygon id="Path-3" fill="url(#linearGradient-1)" points="121.799676 38.0268065 146.608815 74.337923 135.969576 84.4253844 109.396882 97.272 77.137875 75.6756805"></polygon>
                <g id="Rhombus" transform="translate(144.430906, 46.609227) scale(-1, 1) rotate(-13.000000) translate(-144.430906, -46.609227) translate(117.930906, 7.609227)">
                    <polygon id="Path-2" fill="#F8A794" points="14.3506185 39.0431166 26.2376831 0.0403275747 52.9229131 39.0431166"></polygon>
                    <polygon id="Path-2" fill="#FFFFFF" transform="translate(13.118842, 19.521558) scale(-1, 1) translate(-13.118842, -19.521558) " points="11.2822646 39.002789 2.0340849e-13 0.0403275747 26.2376831 39.002789"></polygon>
                    <polygon id="Path-2" fill="#FE4A48" transform="translate(33.636766, 58.248922) scale(1, -1) translate(-33.636766, -58.248922) " points="14.3506185 77.7503166 26.2376831 38.7475276 52.9229131 77.7503166"></polygon>
                    <polygon id="Path-2" fill="#FC7876" transform="translate(13.118842, 58.228758) scale(-1, -1) translate(-13.118842, -58.228758) " points="11.2822646 77.7503166 2.24974446e-14 38.7072 26.2376831 77.7503166"></polygon>
                </g>
            </g>
        </g>
    </g>
</svg>